/* XPM */
static char * close_xpm[] = {
"16 15 11 1",
" 	c None",
".	c #161616",
"+	c #131718",
"@	c #321414",
"#	c #10181A",
"$	c #B90000",
"%	c #101918",
"&	c #12171A",
"*	c #121818",
"=	c #151618",
"-	c #151716",
"................",
"++++++++++++++++",
"@@@@@@@@@@@@@@@#",
"@@@@@@@@@@@@@@@#",
"@@@@@@@@@@@@@@@#",
"@@@@@$@@@$@@@@@#",
"@@@@@@$@$@@@@@@#",
"@@@@@@@$@@@@@@@#",
"@@@@@@$@$@@@@@@#",
"@@@@@$@@@$@@@@@#",
"@@@@@@@@@@@@@@@#",
"@@@@@@@@@@@@@@@#",
"@@@@@@@@@@@@@@@#",
"#%&*#%&*#%&*#..#",
"=-=-=-=-=-=-=-=-"};
