/* XPM */
static char * min_pressed_xpm[] = {
"15 15 4 1",
" 	c None",
".	c #161616",
"+	c #813434",
"@	c #B90000",
"...............",
"...............",
"+++++++++++++++",
"+++++++++++++++",
"+++++++++++++++",
"+++++++++++++++",
"+++++++++++++++",
"+++++++++++++++",
"+++++++++++++++",
"+@@@@@@@@@@@@@+",
"+@@@@@@@@@@@@@+",
"+@@@@@@@@@@@@@+",
"+++++++++++++++",
"...............",
"..............."};
