/* XPM */
static char * toolbar_focused_xpm[] = {
"10 18 4 1",
" 	c None",
".	c #161616",
"+	c #321414",
"@	c #181818",
"..........",
"..........",
"++++++++++",
"++++++++++",
"++++++++++",
"++++++++++",
"++++++++++",
"++++++++++",
"++++++++++",
"++++++++++",
"++++++++++",
"++++++++++",
"++++++++++",
"++++++++++",
"++++++++++",
"++++++++++",
"..........",
"@@@@@@@@@@"};
